<?xml version="1.0" encoding="utf-8" standalone="no"?>
<!DOCTYPE svg PUBLIC "-//W3C//DTD SVG 1.1//EN"
  "http://www.w3.org/Graphics/SVG/1.1/DTD/svg11.dtd">
<svg xmlns:xlink="http://www.w3.org/1999/xlink" width="460.8pt" height="345.6pt" viewBox="0 0 460.8 345.6" xmlns="http://www.w3.org/2000/svg" version="1.1">
 <metadata>
  <rdf:RDF xmlns:dc="http://purl.org/dc/elements/1.1/" xmlns:cc="http://creativecommons.org/ns#" xmlns:rdf="http://www.w3.org/1999/02/22-rdf-syntax-ns#">
   <cc:Work>
    <dc:type rdf:resource="http://purl.org/dc/dcmitype/StillImage"/>
    <dc:date>2024-12-03T00:55:42.060724</dc:date>
    <dc:format>image/svg+xml</dc:format>
    <dc:creator>
     <cc:Agent>
      <dc:title>Matplotlib v3.9.2, https://matplotlib.org/</dc:title>
     </cc:Agent>
    </dc:creator>
   </cc:Work>
  </rdf:RDF>
 </metadata>
 <defs>
  <style type="text/css">*{stroke-linejoin: round; stroke-linecap: butt}</style>
 </defs>
 <g id="figure_1">
  <g id="patch_1">
   <path d="M 0 345.6 
L 460.8 345.6 
L 460.8 0 
L 0 0 
z
" style="fill: #ffffff"/>
  </g>
  <g id="axes_1">
   <g id="patch_2">
    <path d="M 57.6 307.584 
L 414.72 307.584 
L 414.72 41.472 
L 57.6 41.472 
z
" style="fill: #ffffff"/>
   </g>
   <g id="PathCollection_1">
    <defs>
     <path id="mcf3389733b" d="M 0 3 
C 0.795609 3 1.55874 2.683901 2.12132 2.12132 
C 2.683901 1.55874 3 0.795609 3 0 
C 3 -0.795609 2.683901 -1.55874 2.12132 -2.12132 
C 1.55874 -2.683901 0.795609 -3 0 -3 
C -0.795609 -3 -1.55874 -2.683901 -2.12132 -2.12132 
C -2.683901 -1.55874 -3 -0.795609 -3 0 
C -3 0.795609 -2.683901 1.55874 -2.12132 2.12132 
C -1.55874 2.683901 -0.795609 3 0 3 
z
" style="stroke: #ffffff; stroke-width: 0.48"/>
    </defs>
    <g clip-path="url(#p33ce55737f)">
     <use xlink:href="#mcf3389733b" x="113.545772" y="166.037177" style="fill: #802a2a; stroke: #ffffff; stroke-width: 0.48"/>
     <use xlink:href="#mcf3389733b" x="209.173049" y="155.383083" style="fill: #802a2a; stroke: #ffffff; stroke-width: 0.48"/>
     <use xlink:href="#mcf3389733b" x="176.141663" y="78.43835" style="fill: #802a2a; stroke: #ffffff; stroke-width: 0.48"/>
     <use xlink:href="#mcf3389733b" x="209.940865" y="201.233721" style="fill: #802a2a; stroke: #ffffff; stroke-width: 0.48"/>
     <use xlink:href="#mcf3389733b" x="279.621377" y="178.356328" style="fill: #802a2a; stroke: #ffffff; stroke-width: 0.48"/>
     <use xlink:href="#mcf3389733b" x="133.658395" y="111.334391" style="fill: #802a2a; stroke: #ffffff; stroke-width: 0.48"/>
     <use xlink:href="#mcf3389733b" x="225.744131" y="173.511856" style="fill: #802a2a; stroke: #ffffff; stroke-width: 0.48"/>
     <use xlink:href="#mcf3389733b" x="151.607192" y="162.572884" style="fill: #802a2a; stroke: #ffffff; stroke-width: 0.48"/>
     <use xlink:href="#mcf3389733b" x="91.405709" y="99.076764" style="fill: #802a2a; stroke: #ffffff; stroke-width: 0.48"/>
     <use xlink:href="#mcf3389733b" x="318.06521" y="251.074791" style="fill: #802a2a; stroke: #ffffff; stroke-width: 0.48"/>
     <use xlink:href="#mcf3389733b" x="94.323794" y="53.788587" style="fill: #802a2a; stroke: #ffffff; stroke-width: 0.48"/>
     <use xlink:href="#mcf3389733b" x="94.408481" y="53.568" style="fill: #802a2a; stroke: #ffffff; stroke-width: 0.48"/>
     <use xlink:href="#mcf3389733b" x="82.981548" y="93.092765" style="fill: #802a2a; stroke: #ffffff; stroke-width: 0.48"/>
     <use xlink:href="#mcf3389733b" x="173.823649" y="80.354824" style="fill: #802a2a; stroke: #ffffff; stroke-width: 0.48"/>
     <use xlink:href="#mcf3389733b" x="133.685844" y="174.801041" style="fill: #802a2a; stroke: #ffffff; stroke-width: 0.48"/>
     <use xlink:href="#mcf3389733b" x="245.867444" y="280.347588" style="fill: #802a2a; stroke: #ffffff; stroke-width: 0.48"/>
     <use xlink:href="#mcf3389733b" x="275.519338" y="206.333526" style="fill: #802a2a; stroke: #ffffff; stroke-width: 0.48"/>
     <use xlink:href="#mcf3389733b" x="216.349832" y="154.17886" style="fill: #802a2a; stroke: #ffffff; stroke-width: 0.48"/>
     <use xlink:href="#mcf3389733b" x="325.100704" y="261.892043" style="fill: #802a2a; stroke: #ffffff; stroke-width: 0.48"/>
     <use xlink:href="#mcf3389733b" x="128.496115" y="157.68844" style="fill: #802a2a; stroke: #ffffff; stroke-width: 0.48"/>
     <use xlink:href="#mcf3389733b" x="217.795866" y="156.378237" style="fill: #802a2a; stroke: #ffffff; stroke-width: 0.48"/>
     <use xlink:href="#mcf3389733b" x="231.318979" y="152.37484" style="fill: #802a2a; stroke: #ffffff; stroke-width: 0.48"/>
     <use xlink:href="#mcf3389733b" x="190.471172" y="155.71869" style="fill: #802a2a; stroke: #ffffff; stroke-width: 0.48"/>
     <use xlink:href="#mcf3389733b" x="324.708497" y="280.791273" style="fill: #802a2a; stroke: #ffffff; stroke-width: 0.48"/>
     <use xlink:href="#mcf3389733b" x="325.884299" y="251.467266" style="fill: #802a2a; stroke: #ffffff; stroke-width: 0.48"/>
     <use xlink:href="#mcf3389733b" x="230.610038" y="186.366836" style="fill: #802a2a; stroke: #ffffff; stroke-width: 0.48"/>
     <use xlink:href="#mcf3389733b" x="127.508942" y="164.391009" style="fill: #802a2a; stroke: #ffffff; stroke-width: 0.48"/>
     <use xlink:href="#mcf3389733b" x="247.201845" y="170.100851" style="fill: #802a2a; stroke: #ffffff; stroke-width: 0.48"/>
     <use xlink:href="#mcf3389733b" x="93.123243" y="102.373642" style="fill: #802a2a; stroke: #ffffff; stroke-width: 0.48"/>
     <use xlink:href="#mcf3389733b" x="95.296411" y="134.371021" style="fill: #802a2a; stroke: #ffffff; stroke-width: 0.48"/>
     <use xlink:href="#mcf3389733b" x="73.832727" y="87.615884" style="fill: #802a2a; stroke: #ffffff; stroke-width: 0.48"/>
     <use xlink:href="#mcf3389733b" x="238.331825" y="182.989608" style="fill: #802a2a; stroke: #ffffff; stroke-width: 0.48"/>
     <use xlink:href="#mcf3389733b" x="164.184572" y="153.889961" style="fill: #802a2a; stroke: #ffffff; stroke-width: 0.48"/>
     <use xlink:href="#mcf3389733b" x="135.83986" y="156.339726" style="fill: #802a2a; stroke: #ffffff; stroke-width: 0.48"/>
     <use xlink:href="#mcf3389733b" x="279.239904" y="190.589421" style="fill: #802a2a; stroke: #ffffff; stroke-width: 0.48"/>
     <use xlink:href="#mcf3389733b" x="210.701859" y="188.957659" style="fill: #802a2a; stroke: #ffffff; stroke-width: 0.48"/>
     <use xlink:href="#mcf3389733b" x="173.216809" y="115.872538" style="fill: #802a2a; stroke: #ffffff; stroke-width: 0.48"/>
     <use xlink:href="#mcf3389733b" x="242.075447" y="187.265835" style="fill: #802a2a; stroke: #ffffff; stroke-width: 0.48"/>
     <use xlink:href="#mcf3389733b" x="220.599192" y="199.000331" style="fill: #802a2a; stroke: #ffffff; stroke-width: 0.48"/>
     <use xlink:href="#mcf3389733b" x="151.866623" y="81.693303" style="fill: #802a2a; stroke: #ffffff; stroke-width: 0.48"/>
     <use xlink:href="#mcf3389733b" x="324.131961" y="240.502805" style="fill: #802a2a; stroke: #ffffff; stroke-width: 0.48"/>
     <use xlink:href="#mcf3389733b" x="202.86048" y="155.964503" style="fill: #802a2a; stroke: #ffffff; stroke-width: 0.48"/>
     <use xlink:href="#mcf3389733b" x="247.821101" y="196.658611" style="fill: #802a2a; stroke: #ffffff; stroke-width: 0.48"/>
     <use xlink:href="#mcf3389733b" x="173.31717" y="62.089071" style="fill: #802a2a; stroke: #ffffff; stroke-width: 0.48"/>
     <use xlink:href="#mcf3389733b" x="173.641801" y="82.973828" style="fill: #802a2a; stroke: #ffffff; stroke-width: 0.48"/>
     <use xlink:href="#mcf3389733b" x="155.38662" y="143.160217" style="fill: #802a2a; stroke: #ffffff; stroke-width: 0.48"/>
     <use xlink:href="#mcf3389733b" x="283.814432" y="193.154423" style="fill: #802a2a; stroke: #ffffff; stroke-width: 0.48"/>
     <use xlink:href="#mcf3389733b" x="78.255149" y="87.189384" style="fill: #802a2a; stroke: #ffffff; stroke-width: 0.48"/>
     <use xlink:href="#mcf3389733b" x="172.506227" y="122.071597" style="fill: #802a2a; stroke: #ffffff; stroke-width: 0.48"/>
     <use xlink:href="#mcf3389733b" x="111.821875" y="125.017124" style="fill: #802a2a; stroke: #ffffff; stroke-width: 0.48"/>
     <use xlink:href="#mcf3389733b" x="103.117102" y="132.250762" style="fill: #802a2a; stroke: #ffffff; stroke-width: 0.48"/>
     <use xlink:href="#mcf3389733b" x="183.276516" y="158.568076" style="fill: #802a2a; stroke: #ffffff; stroke-width: 0.48"/>
     <use xlink:href="#mcf3389733b" x="254.082473" y="199.777633" style="fill: #802a2a; stroke: #ffffff; stroke-width: 0.48"/>
     <use xlink:href="#mcf3389733b" x="138.579352" y="133.570084" style="fill: #802a2a; stroke: #ffffff; stroke-width: 0.48"/>
     <use xlink:href="#mcf3389733b" x="95.639162" y="126.341681" style="fill: #802a2a; stroke: #ffffff; stroke-width: 0.48"/>
     <use xlink:href="#mcf3389733b" x="176.973255" y="159.213571" style="fill: #802a2a; stroke: #ffffff; stroke-width: 0.48"/>
     <use xlink:href="#mcf3389733b" x="210.145463" y="188.556218" style="fill: #802a2a; stroke: #ffffff; stroke-width: 0.48"/>
     <use xlink:href="#mcf3389733b" x="269.957511" y="242.455313" style="fill: #802a2a; stroke: #ffffff; stroke-width: 0.48"/>
     <use xlink:href="#mcf3389733b" x="245.964232" y="274.353852" style="fill: #802a2a; stroke: #ffffff; stroke-width: 0.48"/>
     <use xlink:href="#mcf3389733b" x="198.339939" y="186.786112" style="fill: #802a2a; stroke: #ffffff; stroke-width: 0.48"/>
     <use xlink:href="#mcf3389733b" x="224.661205" y="164.608575" style="fill: #802a2a; stroke: #ffffff; stroke-width: 0.48"/>
     <use xlink:href="#mcf3389733b" x="246.879381" y="276.394105" style="fill: #802a2a; stroke: #ffffff; stroke-width: 0.48"/>
     <use xlink:href="#mcf3389733b" x="267.937979" y="295.488" style="fill: #802a2a; stroke: #ffffff; stroke-width: 0.48"/>
     <use xlink:href="#mcf3389733b" x="171.728242" y="69.604048" style="fill: #802a2a; stroke: #ffffff; stroke-width: 0.48"/>
     <use xlink:href="#mcf3389733b" x="290.451573" y="217.418978" style="fill: #802a2a; stroke: #ffffff; stroke-width: 0.48"/>
     <use xlink:href="#mcf3389733b" x="309.856021" y="222.093836" style="fill: #802a2a; stroke: #ffffff; stroke-width: 0.48"/>
     <use xlink:href="#mcf3389733b" x="267.35202" y="280.162008" style="fill: #802a2a; stroke: #ffffff; stroke-width: 0.48"/>
     <use xlink:href="#mcf3389733b" x="264.010852" y="283.46172" style="fill: #802a2a; stroke: #ffffff; stroke-width: 0.48"/>
     <use xlink:href="#mcf3389733b" x="102.522659" y="112.200153" style="fill: #802a2a; stroke: #ffffff; stroke-width: 0.48"/>
     <use xlink:href="#mcf3389733b" x="98.518229" y="140.952687" style="fill: #802a2a; stroke: #ffffff; stroke-width: 0.48"/>
     <use xlink:href="#mcf3389733b" x="392.430611" y="248.982136" style="fill: #802a2a; stroke: #ffffff; stroke-width: 0.48"/>
     <use xlink:href="#mcf3389733b" x="394.974031" y="257.572169" style="fill: #802a2a; stroke: #ffffff; stroke-width: 0.48"/>
     <use xlink:href="#mcf3389733b" x="131.830364" y="167.388644" style="fill: #802a2a; stroke: #ffffff; stroke-width: 0.48"/>
     <use xlink:href="#mcf3389733b" x="149.086824" y="153.747278" style="fill: #802a2a; stroke: #ffffff; stroke-width: 0.48"/>
     <use xlink:href="#mcf3389733b" x="265.979664" y="225.0291" style="fill: #802a2a; stroke: #ffffff; stroke-width: 0.48"/>
     <use xlink:href="#mcf3389733b" x="89.840304" y="135.915071" style="fill: #802a2a; stroke: #ffffff; stroke-width: 0.48"/>
     <use xlink:href="#mcf3389733b" x="187.738966" y="170.664345" style="fill: #802a2a; stroke: #ffffff; stroke-width: 0.48"/>
     <use xlink:href="#mcf3389733b" x="196.852233" y="151.681269" style="fill: #802a2a; stroke: #ffffff; stroke-width: 0.48"/>
     <use xlink:href="#mcf3389733b" x="164.16139" y="137.906643" style="fill: #802a2a; stroke: #ffffff; stroke-width: 0.48"/>
     <use xlink:href="#mcf3389733b" x="77.610371" y="111.266803" style="fill: #802a2a; stroke: #ffffff; stroke-width: 0.48"/>
     <use xlink:href="#mcf3389733b" x="283.405711" y="220.247434" style="fill: #802a2a; stroke: #ffffff; stroke-width: 0.48"/>
     <use xlink:href="#mcf3389733b" x="102.708616" y="106.95325" style="fill: #802a2a; stroke: #ffffff; stroke-width: 0.48"/>
     <use xlink:href="#mcf3389733b" x="201.541588" y="186.102847" style="fill: #802a2a; stroke: #ffffff; stroke-width: 0.48"/>
     <use xlink:href="#mcf3389733b" x="200.79068" y="166.291082" style="fill: #802a2a; stroke: #ffffff; stroke-width: 0.48"/>
     <use xlink:href="#mcf3389733b" x="196.768668" y="185.691671" style="fill: #802a2a; stroke: #ffffff; stroke-width: 0.48"/>
     <use xlink:href="#mcf3389733b" x="214.650956" y="173.460423" style="fill: #802a2a; stroke: #ffffff; stroke-width: 0.48"/>
     <use xlink:href="#mcf3389733b" x="332.113738" y="270.504404" style="fill: #802a2a; stroke: #ffffff; stroke-width: 0.48"/>
     <use xlink:href="#mcf3389733b" x="109.513015" y="156.18594" style="fill: #802a2a; stroke: #ffffff; stroke-width: 0.48"/>
     <use xlink:href="#mcf3389733b" x="125.275759" y="140.402294" style="fill: #802a2a; stroke: #ffffff; stroke-width: 0.48"/>
     <use xlink:href="#mcf3389733b" x="123.610641" y="150.978133" style="fill: #802a2a; stroke: #ffffff; stroke-width: 0.48"/>
     <use xlink:href="#mcf3389733b" x="368.033173" y="249.775964" style="fill: #802a2a; stroke: #ffffff; stroke-width: 0.48"/>
     <use xlink:href="#mcf3389733b" x="299.683261" y="235.097405" style="fill: #802a2a; stroke: #ffffff; stroke-width: 0.48"/>
     <use xlink:href="#mcf3389733b" x="266.610596" y="192.752906" style="fill: #802a2a; stroke: #ffffff; stroke-width: 0.48"/>
     <use xlink:href="#mcf3389733b" x="154.264035" y="132.276307" style="fill: #802a2a; stroke: #ffffff; stroke-width: 0.48"/>
     <use xlink:href="#mcf3389733b" x="160.099273" y="153.187951" style="fill: #802a2a; stroke: #ffffff; stroke-width: 0.48"/>
     <use xlink:href="#mcf3389733b" x="129.168985" y="150.589898" style="fill: #802a2a; stroke: #ffffff; stroke-width: 0.48"/>
     <use xlink:href="#mcf3389733b" x="85.198461" y="84.586816" style="fill: #802a2a; stroke: #ffffff; stroke-width: 0.48"/>
     <use xlink:href="#mcf3389733b" x="115.184504" y="119.293423" style="fill: #802a2a; stroke: #ffffff; stroke-width: 0.48"/>
     <use xlink:href="#mcf3389733b" x="126.156298" y="130.613108" style="fill: #802a2a; stroke: #ffffff; stroke-width: 0.48"/>
     <use xlink:href="#mcf3389733b" x="155.643919" y="167.871793" style="fill: #802a2a; stroke: #ffffff; stroke-width: 0.48"/>
     <use xlink:href="#mcf3389733b" x="76.164483" y="110.072475" style="fill: #802a2a; stroke: #ffffff; stroke-width: 0.48"/>
     <use xlink:href="#mcf3389733b" x="237.517031" y="173.520454" style="fill: #802a2a; stroke: #ffffff; stroke-width: 0.48"/>
     <use xlink:href="#mcf3389733b" x="368.33923" y="236.300687" style="fill: #802a2a; stroke: #ffffff; stroke-width: 0.48"/>
     <use xlink:href="#mcf3389733b" x="236.037113" y="158.304134" style="fill: #802a2a; stroke: #ffffff; stroke-width: 0.48"/>
     <use xlink:href="#mcf3389733b" x="122.249465" y="117.18596" style="fill: #802a2a; stroke: #ffffff; stroke-width: 0.48"/>
     <use xlink:href="#mcf3389733b" x="264.74329" y="282.279365" style="fill: #802a2a; stroke: #ffffff; stroke-width: 0.48"/>
     <use xlink:href="#mcf3389733b" x="315.344147" y="241.000976" style="fill: #802a2a; stroke: #ffffff; stroke-width: 0.48"/>
     <use xlink:href="#mcf3389733b" x="231.839708" y="161.632207" style="fill: #802a2a; stroke: #ffffff; stroke-width: 0.48"/>
     <use xlink:href="#mcf3389733b" x="247.361418" y="291.470203" style="fill: #802a2a; stroke: #ffffff; stroke-width: 0.48"/>
     <use xlink:href="#mcf3389733b" x="287.48832" y="226.693917" style="fill: #802a2a; stroke: #ffffff; stroke-width: 0.48"/>
     <use xlink:href="#mcf3389733b" x="303.039861" y="225.688303" style="fill: #802a2a; stroke: #ffffff; stroke-width: 0.48"/>
     <use xlink:href="#mcf3389733b" x="325.740389" y="230.515239" style="fill: #802a2a; stroke: #ffffff; stroke-width: 0.48"/>
     <use xlink:href="#mcf3389733b" x="318.216633" y="223.879867" style="fill: #802a2a; stroke: #ffffff; stroke-width: 0.48"/>
     <use xlink:href="#mcf3389733b" x="322.407124" y="219.036896" style="fill: #802a2a; stroke: #ffffff; stroke-width: 0.48"/>
     <use xlink:href="#mcf3389733b" x="293.430574" y="234.971171" style="fill: #802a2a; stroke: #ffffff; stroke-width: 0.48"/>
     <use xlink:href="#mcf3389733b" x="269.080359" y="233.966907" style="fill: #802a2a; stroke: #ffffff; stroke-width: 0.48"/>
     <use xlink:href="#mcf3389733b" x="286.351179" y="201.23046" style="fill: #802a2a; stroke: #ffffff; stroke-width: 0.48"/>
     <use xlink:href="#mcf3389733b" x="363.573988" y="251.346794" style="fill: #802a2a; stroke: #ffffff; stroke-width: 0.48"/>
     <use xlink:href="#mcf3389733b" x="366.918918" y="282.065084" style="fill: #802a2a; stroke: #ffffff; stroke-width: 0.48"/>
     <use xlink:href="#mcf3389733b" x="275.496033" y="240.809102" style="fill: #802a2a; stroke: #ffffff; stroke-width: 0.48"/>
     <use xlink:href="#mcf3389733b" x="274.867617" y="198.030382" style="fill: #802a2a; stroke: #ffffff; stroke-width: 0.48"/>
     <use xlink:href="#mcf3389733b" x="295.954294" y="225.002348" style="fill: #802a2a; stroke: #ffffff; stroke-width: 0.48"/>
     <use xlink:href="#mcf3389733b" x="370.845077" y="234.437278" style="fill: #802a2a; stroke: #ffffff; stroke-width: 0.48"/>
     <use xlink:href="#mcf3389733b" x="351.607561" y="231.472468" style="fill: #802a2a; stroke: #ffffff; stroke-width: 0.48"/>
     <use xlink:href="#mcf3389733b" x="281.611892" y="208.558125" style="fill: #802a2a; stroke: #ffffff; stroke-width: 0.48"/>
     <use xlink:href="#mcf3389733b" x="145.426478" y="171.49023" style="fill: #802a2a; stroke: #ffffff; stroke-width: 0.48"/>
     <use xlink:href="#mcf3389733b" x="206.528544" y="145.577983" style="fill: #802a2a; stroke: #ffffff; stroke-width: 0.48"/>
     <use xlink:href="#mcf3389733b" x="352.0559" y="293.418181" style="fill: #802a2a; stroke: #ffffff; stroke-width: 0.48"/>
     <use xlink:href="#mcf3389733b" x="212.240491" y="166.082257" style="fill: #802a2a; stroke: #ffffff; stroke-width: 0.48"/>
     <use xlink:href="#mcf3389733b" x="142.66987" y="140.430814" style="fill: #802a2a; stroke: #ffffff; stroke-width: 0.48"/>
     <use xlink:href="#mcf3389733b" x="171.409005" y="105.044837" style="fill: #802a2a; stroke: #ffffff; stroke-width: 0.48"/>
     <use xlink:href="#mcf3389733b" x="150.293382" y="141.005905" style="fill: #802a2a; stroke: #ffffff; stroke-width: 0.48"/>
     <use xlink:href="#mcf3389733b" x="279.207716" y="200.863481" style="fill: #802a2a; stroke: #ffffff; stroke-width: 0.48"/>
     <use xlink:href="#mcf3389733b" x="216.48907" y="205.735335" style="fill: #802a2a; stroke: #ffffff; stroke-width: 0.48"/>
     <use xlink:href="#mcf3389733b" x="153.644938" y="147.714356" style="fill: #802a2a; stroke: #ffffff; stroke-width: 0.48"/>
     <use xlink:href="#mcf3389733b" x="109.896046" y="145.105286" style="fill: #802a2a; stroke: #ffffff; stroke-width: 0.48"/>
     <use xlink:href="#mcf3389733b" x="106.356548" y="125.159614" style="fill: #802a2a; stroke: #ffffff; stroke-width: 0.48"/>
     <use xlink:href="#mcf3389733b" x="117.976786" y="147.452784" style="fill: #802a2a; stroke: #ffffff; stroke-width: 0.48"/>
     <use xlink:href="#mcf3389733b" x="140.136819" y="115.075797" style="fill: #802a2a; stroke: #ffffff; stroke-width: 0.48"/>
     <use xlink:href="#mcf3389733b" x="250.907016" y="178.210288" style="fill: #802a2a; stroke: #ffffff; stroke-width: 0.48"/>
     <use xlink:href="#mcf3389733b" x="97.761682" y="119.896286" style="fill: #802a2a; stroke: #ffffff; stroke-width: 0.48"/>
     <use xlink:href="#mcf3389733b" x="162.947754" y="143.557509" style="fill: #802a2a; stroke: #ffffff; stroke-width: 0.48"/>
     <use xlink:href="#mcf3389733b" x="160.457024" y="85.565965" style="fill: #802a2a; stroke: #ffffff; stroke-width: 0.48"/>
     <use xlink:href="#mcf3389733b" x="356.400817" y="294.695723" style="fill: #802a2a; stroke: #ffffff; stroke-width: 0.48"/>
     <use xlink:href="#mcf3389733b" x="78.287481" y="110.988696" style="fill: #802a2a; stroke: #ffffff; stroke-width: 0.48"/>
     <use xlink:href="#mcf3389733b" x="115.670468" y="142.525304" style="fill: #802a2a; stroke: #ffffff; stroke-width: 0.48"/>
     <use xlink:href="#mcf3389733b" x="252.117592" y="171.678835" style="fill: #802a2a; stroke: #ffffff; stroke-width: 0.48"/>
     <use xlink:href="#mcf3389733b" x="261.65004" y="183.938139" style="fill: #802a2a; stroke: #ffffff; stroke-width: 0.48"/>
     <use xlink:href="#mcf3389733b" x="237.45777" y="171.856717" style="fill: #802a2a; stroke: #ffffff; stroke-width: 0.48"/>
     <use xlink:href="#mcf3389733b" x="133.649942" y="136.661931" style="fill: #802a2a; stroke: #ffffff; stroke-width: 0.48"/>
     <use xlink:href="#mcf3389733b" x="240.375517" y="196.752019" style="fill: #802a2a; stroke: #ffffff; stroke-width: 0.48"/>
     <use xlink:href="#mcf3389733b" x="264.416332" y="281.168409" style="fill: #802a2a; stroke: #ffffff; stroke-width: 0.48"/>
     <use xlink:href="#mcf3389733b" x="364.480974" y="264.061804" style="fill: #802a2a; stroke: #ffffff; stroke-width: 0.48"/>
     <use xlink:href="#mcf3389733b" x="270.817836" y="272.09347" style="fill: #802a2a; stroke: #ffffff; stroke-width: 0.48"/>
     <use xlink:href="#mcf3389733b" x="180.915946" y="82.116395" style="fill: #802a2a; stroke: #ffffff; stroke-width: 0.48"/>
     <use xlink:href="#mcf3389733b" x="172.458782" y="99.802035" style="fill: #802a2a; stroke: #ffffff; stroke-width: 0.48"/>
     <use xlink:href="#mcf3389733b" x="154.202809" y="158.784668" style="fill: #802a2a; stroke: #ffffff; stroke-width: 0.48"/>
     <use xlink:href="#mcf3389733b" x="260.625942" y="283.368304" style="fill: #802a2a; stroke: #ffffff; stroke-width: 0.48"/>
     <use xlink:href="#mcf3389733b" x="293.328399" y="209.186263" style="fill: #802a2a; stroke: #ffffff; stroke-width: 0.48"/>
     <use xlink:href="#mcf3389733b" x="216.598267" y="174.597392" style="fill: #802a2a; stroke: #ffffff; stroke-width: 0.48"/>
     <use xlink:href="#mcf3389733b" x="329.424432" y="269.317917" style="fill: #802a2a; stroke: #ffffff; stroke-width: 0.48"/>
     <use xlink:href="#mcf3389733b" x="302.572078" y="169.827511" style="fill: #802a2a; stroke: #ffffff; stroke-width: 0.48"/>
     <use xlink:href="#mcf3389733b" x="314.544543" y="278.736159" style="fill: #802a2a; stroke: #ffffff; stroke-width: 0.48"/>
     <use xlink:href="#mcf3389733b" x="329.856432" y="258.927957" style="fill: #802a2a; stroke: #ffffff; stroke-width: 0.48"/>
     <use xlink:href="#mcf3389733b" x="319.182912" y="260.817699" style="fill: #802a2a; stroke: #ffffff; stroke-width: 0.48"/>
     <use xlink:href="#mcf3389733b" x="303.837237" y="169.238776" style="fill: #802a2a; stroke: #ffffff; stroke-width: 0.48"/>
     <use xlink:href="#mcf3389733b" x="312.523729" y="274.061505" style="fill: #802a2a; stroke: #ffffff; stroke-width: 0.48"/>
     <use xlink:href="#mcf3389733b" x="309.188174" y="266.114596" style="fill: #802a2a; stroke: #ffffff; stroke-width: 0.48"/>
     <use xlink:href="#mcf3389733b" x="367.681777" y="262.391351" style="fill: #802a2a; stroke: #ffffff; stroke-width: 0.48"/>
     <use xlink:href="#mcf3389733b" x="374.583625" y="262.36753" style="fill: #802a2a; stroke: #ffffff; stroke-width: 0.48"/>
     <use xlink:href="#mcf3389733b" x="324.707888" y="263.524482" style="fill: #802a2a; stroke: #ffffff; stroke-width: 0.48"/>
     <use xlink:href="#mcf3389733b" x="302.5837" y="169.806792" style="fill: #802a2a; stroke: #ffffff; stroke-width: 0.48"/>
     <use xlink:href="#mcf3389733b" x="333.979891" y="263.506849" style="fill: #802a2a; stroke: #ffffff; stroke-width: 0.48"/>
     <use xlink:href="#mcf3389733b" x="386.541721" y="236.330699" style="fill: #802a2a; stroke: #ffffff; stroke-width: 0.48"/>
     <use xlink:href="#mcf3389733b" x="377.02271" y="271.901623" style="fill: #802a2a; stroke: #ffffff; stroke-width: 0.48"/>
     <use xlink:href="#mcf3389733b" x="387.399643" y="254.83028" style="fill: #802a2a; stroke: #ffffff; stroke-width: 0.48"/>
     <use xlink:href="#mcf3389733b" x="379.61932" y="245.591392" style="fill: #802a2a; stroke: #ffffff; stroke-width: 0.48"/>
     <use xlink:href="#mcf3389733b" x="380.383519" y="225.333079" style="fill: #802a2a; stroke: #ffffff; stroke-width: 0.48"/>
     <use xlink:href="#mcf3389733b" x="383.545096" y="258.458334" style="fill: #802a2a; stroke: #ffffff; stroke-width: 0.48"/>
     <use xlink:href="#mcf3389733b" x="381.199394" y="229.367013" style="fill: #802a2a; stroke: #ffffff; stroke-width: 0.48"/>
     <use xlink:href="#mcf3389733b" x="377.791567" y="258.020286" style="fill: #802a2a; stroke: #ffffff; stroke-width: 0.48"/>
     <use xlink:href="#mcf3389733b" x="373.603113" y="269.11002" style="fill: #802a2a; stroke: #ffffff; stroke-width: 0.48"/>
     <use xlink:href="#mcf3389733b" x="385.061585" y="245.266703" style="fill: #802a2a; stroke: #ffffff; stroke-width: 0.48"/>
     <use xlink:href="#mcf3389733b" x="389.815633" y="269.60425" style="fill: #802a2a; stroke: #ffffff; stroke-width: 0.48"/>
     <use xlink:href="#mcf3389733b" x="379.433232" y="278.036274" style="fill: #802a2a; stroke: #ffffff; stroke-width: 0.48"/>
     <use xlink:href="#mcf3389733b" x="374.484966" y="254.315992" style="fill: #802a2a; stroke: #ffffff; stroke-width: 0.48"/>
     <use xlink:href="#mcf3389733b" x="393.255592" y="240.790394" style="fill: #802a2a; stroke: #ffffff; stroke-width: 0.48"/>
     <use xlink:href="#mcf3389733b" x="377.932804" y="237.071868" style="fill: #802a2a; stroke: #ffffff; stroke-width: 0.48"/>
     <use xlink:href="#mcf3389733b" x="391.774812" y="234.792648" style="fill: #802a2a; stroke: #ffffff; stroke-width: 0.48"/>
     <use xlink:href="#mcf3389733b" x="381.209562" y="268.984258" style="fill: #802a2a; stroke: #ffffff; stroke-width: 0.48"/>
     <use xlink:href="#mcf3389733b" x="375.155364" y="279.32649" style="fill: #802a2a; stroke: #ffffff; stroke-width: 0.48"/>
     <use xlink:href="#mcf3389733b" x="339.966465" y="267.081465" style="fill: #802a2a; stroke: #ffffff; stroke-width: 0.48"/>
     <use xlink:href="#mcf3389733b" x="377.949484" y="246.35916" style="fill: #802a2a; stroke: #ffffff; stroke-width: 0.48"/>
     <use xlink:href="#mcf3389733b" x="389.809643" y="257.79407" style="fill: #802a2a; stroke: #ffffff; stroke-width: 0.48"/>
     <use xlink:href="#mcf3389733b" x="388.729157" y="244.471387" style="fill: #802a2a; stroke: #ffffff; stroke-width: 0.48"/>
     <use xlink:href="#mcf3389733b" x="329.346301" y="238.70615" style="fill: #802a2a; stroke: #ffffff; stroke-width: 0.48"/>
     <use xlink:href="#mcf3389733b" x="398.487273" y="249.400123" style="fill: #802a2a; stroke: #ffffff; stroke-width: 0.48"/>
     <use xlink:href="#mcf3389733b" x="89.501696" y="117.554043" style="fill: #802a2a; stroke: #ffffff; stroke-width: 0.48"/>
     <use xlink:href="#mcf3389733b" x="246.398349" y="177.749851" style="fill: #802a2a; stroke: #ffffff; stroke-width: 0.48"/>
    </g>
   </g>
   <g id="matplotlib.axis_1">
    <g id="xtick_1">
     <g id="line2d_1">
      <defs>
       <path id="me3cf5284f8" d="M 0 0 
L 0 3.5 
" style="stroke: #000000; stroke-width: 0.8"/>
      </defs>
      <g>
       <use xlink:href="#me3cf5284f8" x="95.481498" y="307.584" style="stroke: #000000; stroke-width: 0.8"/>
      </g>
     </g>
     <g id="text_1">
      <!-- −15 -->
      <g transform="translate(84.929154 322.182437) scale(0.1 -0.1)">
       <defs>
        <path id="DejaVuSans-2212" d="M 678 2272 
L 4684 2272 
L 4684 1741 
L 678 1741 
L 678 2272 
z
" transform="scale(0.015625)"/>
        <path id="DejaVuSans-31" d="M 794 531 
L 1825 531 
L 1825 4091 
L 703 3866 
L 703 4441 
L 1819 4666 
L 2450 4666 
L 2450 531 
L 3481 531 
L 3481 0 
L 794 0 
L 794 531 
z
" transform="scale(0.015625)"/>
        <path id="DejaVuSans-35" d="M 691 4666 
L 3169 4666 
L 3169 4134 
L 1269 4134 
L 1269 2991 
Q 1406 3038 1543 3061 
Q 1681 3084 1819 3084 
Q 2600 3084 3056 2656 
Q 3513 2228 3513 1497 
Q 3513 744 3044 326 
Q 2575 -91 1722 -91 
Q 1428 -91 1123 -41 
Q 819 9 494 109 
L 494 744 
Q 775 591 1075 516 
Q 1375 441 1709 441 
Q 2250 441 2565 725 
Q 2881 1009 2881 1497 
Q 2881 1984 2565 2268 
Q 2250 2553 1709 2553 
Q 1456 2553 1204 2497 
Q 953 2441 691 2322 
L 691 4666 
z
" transform="scale(0.015625)"/>
       </defs>
       <use xlink:href="#DejaVuSans-2212"/>
       <use xlink:href="#DejaVuSans-31" x="83.789062"/>
       <use xlink:href="#DejaVuSans-35" x="147.412109"/>
      </g>
     </g>
    </g>
    <g id="xtick_2">
     <g id="line2d_2">
      <g>
       <use xlink:href="#me3cf5284f8" x="141.123138" y="307.584" style="stroke: #000000; stroke-width: 0.8"/>
      </g>
     </g>
     <g id="text_2">
      <!-- −10 -->
      <g transform="translate(130.570794 322.182437) scale(0.1 -0.1)">
       <defs>
        <path id="DejaVuSans-30" d="M 2034 4250 
Q 1547 4250 1301 3770 
Q 1056 3291 1056 2328 
Q 1056 1369 1301 889 
Q 1547 409 2034 409 
Q 2525 409 2770 889 
Q 3016 1369 3016 2328 
Q 3016 3291 2770 3770 
Q 2525 4250 2034 4250 
z
M 2034 4750 
Q 2819 4750 3233 4129 
Q 3647 3509 3647 2328 
Q 3647 1150 3233 529 
Q 2819 -91 2034 -91 
Q 1250 -91 836 529 
Q 422 1150 422 2328 
Q 422 3509 836 4129 
Q 1250 4750 2034 4750 
z
" transform="scale(0.015625)"/>
       </defs>
       <use xlink:href="#DejaVuSans-2212"/>
       <use xlink:href="#DejaVuSans-31" x="83.789062"/>
       <use xlink:href="#DejaVuSans-30" x="147.412109"/>
      </g>
     </g>
    </g>
    <g id="xtick_3">
     <g id="line2d_3">
      <g>
       <use xlink:href="#me3cf5284f8" x="186.764778" y="307.584" style="stroke: #000000; stroke-width: 0.8"/>
      </g>
     </g>
     <g id="text_3">
      <!-- −5 -->
      <g transform="translate(179.393684 322.182437) scale(0.1 -0.1)">
       <use xlink:href="#DejaVuSans-2212"/>
       <use xlink:href="#DejaVuSans-35" x="83.789062"/>
      </g>
     </g>
    </g>
    <g id="xtick_4">
     <g id="line2d_4">
      <g>
       <use xlink:href="#me3cf5284f8" x="232.406418" y="307.584" style="stroke: #000000; stroke-width: 0.8"/>
      </g>
     </g>
     <g id="text_4">
      <!-- 0 -->
      <g transform="translate(229.225168 322.182437) scale(0.1 -0.1)">
       <use xlink:href="#DejaVuSans-30"/>
      </g>
     </g>
    </g>
    <g id="xtick_5">
     <g id="line2d_5">
      <g>
       <use xlink:href="#me3cf5284f8" x="278.048058" y="307.584" style="stroke: #000000; stroke-width: 0.8"/>
      </g>
     </g>
     <g id="text_5">
      <!-- 5 -->
      <g transform="translate(274.866808 322.182437) scale(0.1 -0.1)">
       <use xlink:href="#DejaVuSans-35"/>
      </g>
     </g>
    </g>
    <g id="xtick_6">
     <g id="line2d_6">
      <g>
       <use xlink:href="#me3cf5284f8" x="323.689698" y="307.584" style="stroke: #000000; stroke-width: 0.8"/>
      </g>
     </g>
     <g id="text_6">
      <!-- 10 -->
      <g transform="translate(317.327198 322.182437) scale(0.1 -0.1)">
       <use xlink:href="#DejaVuSans-31"/>
       <use xlink:href="#DejaVuSans-30" x="63.623047"/>
      </g>
     </g>
    </g>
    <g id="xtick_7">
     <g id="line2d_7">
      <g>
       <use xlink:href="#me3cf5284f8" x="369.331339" y="307.584" style="stroke: #000000; stroke-width: 0.8"/>
      </g>
     </g>
     <g id="text_7">
      <!-- 15 -->
      <g transform="translate(362.968839 322.182437) scale(0.1 -0.1)">
       <use xlink:href="#DejaVuSans-31"/>
       <use xlink:href="#DejaVuSans-35" x="63.623047"/>
      </g>
     </g>
    </g>
    <g id="text_8">
     <!-- t-SNE dimension 2 -->
     <g transform="translate(190.061562 335.860562) scale(0.1 -0.1)">
      <defs>
       <path id="DejaVuSans-74" d="M 1172 4494 
L 1172 3500 
L 2356 3500 
L 2356 3053 
L 1172 3053 
L 1172 1153 
Q 1172 725 1289 603 
Q 1406 481 1766 481 
L 2356 481 
L 2356 0 
L 1766 0 
Q 1100 0 847 248 
Q 594 497 594 1153 
L 594 3053 
L 172 3053 
L 172 3500 
L 594 3500 
L 594 4494 
L 1172 4494 
z
" transform="scale(0.015625)"/>
       <path id="DejaVuSans-2d" d="M 313 2009 
L 1997 2009 
L 1997 1497 
L 313 1497 
L 313 2009 
z
" transform="scale(0.015625)"/>
       <path id="DejaVuSans-53" d="M 3425 4513 
L 3425 3897 
Q 3066 4069 2747 4153 
Q 2428 4238 2131 4238 
Q 1616 4238 1336 4038 
Q 1056 3838 1056 3469 
Q 1056 3159 1242 3001 
Q 1428 2844 1947 2747 
L 2328 2669 
Q 3034 2534 3370 2195 
Q 3706 1856 3706 1288 
Q 3706 609 3251 259 
Q 2797 -91 1919 -91 
Q 1588 -91 1214 -16 
Q 841 59 441 206 
L 441 856 
Q 825 641 1194 531 
Q 1563 422 1919 422 
Q 2459 422 2753 634 
Q 3047 847 3047 1241 
Q 3047 1584 2836 1778 
Q 2625 1972 2144 2069 
L 1759 2144 
Q 1053 2284 737 2584 
Q 422 2884 422 3419 
Q 422 4038 858 4394 
Q 1294 4750 2059 4750 
Q 2388 4750 2728 4690 
Q 3069 4631 3425 4513 
z
" transform="scale(0.015625)"/>
       <path id="DejaVuSans-4e" d="M 628 4666 
L 1478 4666 
L 3547 763 
L 3547 4666 
L 4159 4666 
L 4159 0 
L 3309 0 
L 1241 3903 
L 1241 0 
L 628 0 
L 628 4666 
z
" transform="scale(0.015625)"/>
       <path id="DejaVuSans-45" d="M 628 4666 
L 3578 4666 
L 3578 4134 
L 1259 4134 
L 1259 2753 
L 3481 2753 
L 3481 2222 
L 1259 2222 
L 1259 531 
L 3634 531 
L 3634 0 
L 628 0 
L 628 4666 
z
" transform="scale(0.015625)"/>
       <path id="DejaVuSans-20" transform="scale(0.015625)"/>
       <path id="DejaVuSans-64" d="M 2906 2969 
L 2906 4863 
L 3481 4863 
L 3481 0 
L 2906 0 
L 2906 525 
Q 2725 213 2448 61 
Q 2172 -91 1784 -91 
Q 1150 -91 751 415 
Q 353 922 353 1747 
Q 353 2572 751 3078 
Q 1150 3584 1784 3584 
Q 2172 3584 2448 3432 
Q 2725 3281 2906 2969 
z
M 947 1747 
Q 947 1113 1208 752 
Q 1469 391 1925 391 
Q 2381 391 2643 752 
Q 2906 1113 2906 1747 
Q 2906 2381 2643 2742 
Q 2381 3103 1925 3103 
Q 1469 3103 1208 2742 
Q 947 2381 947 1747 
z
" transform="scale(0.015625)"/>
       <path id="DejaVuSans-69" d="M 603 3500 
L 1178 3500 
L 1178 0 
L 603 0 
L 603 3500 
z
M 603 4863 
L 1178 4863 
L 1178 4134 
L 603 4134 
L 603 4863 
z
" transform="scale(0.015625)"/>
       <path id="DejaVuSans-6d" d="M 3328 2828 
Q 3544 3216 3844 3400 
Q 4144 3584 4550 3584 
Q 5097 3584 5394 3201 
Q 5691 2819 5691 2113 
L 5691 0 
L 5113 0 
L 5113 2094 
Q 5113 2597 4934 2840 
Q 4756 3084 4391 3084 
Q 3944 3084 3684 2787 
Q 3425 2491 3425 1978 
L 3425 0 
L 2847 0 
L 2847 2094 
Q 2847 2600 2669 2842 
Q 2491 3084 2119 3084 
Q 1678 3084 1418 2786 
Q 1159 2488 1159 1978 
L 1159 0 
L 581 0 
L 581 3500 
L 1159 3500 
L 1159 2956 
Q 1356 3278 1631 3431 
Q 1906 3584 2284 3584 
Q 2666 3584 2933 3390 
Q 3200 3197 3328 2828 
z
" transform="scale(0.015625)"/>
       <path id="DejaVuSans-65" d="M 3597 1894 
L 3597 1613 
L 953 1613 
Q 991 1019 1311 708 
Q 1631 397 2203 397 
Q 2534 397 2845 478 
Q 3156 559 3463 722 
L 3463 178 
Q 3153 47 2828 -22 
Q 2503 -91 2169 -91 
Q 1331 -91 842 396 
Q 353 884 353 1716 
Q 353 2575 817 3079 
Q 1281 3584 2069 3584 
Q 2775 3584 3186 3129 
Q 3597 2675 3597 1894 
z
M 3022 2063 
Q 3016 2534 2758 2815 
Q 2500 3097 2075 3097 
Q 1594 3097 1305 2825 
Q 1016 2553 972 2059 
L 3022 2063 
z
" transform="scale(0.015625)"/>
       <path id="DejaVuSans-6e" d="M 3513 2113 
L 3513 0 
L 2938 0 
L 2938 2094 
Q 2938 2591 2744 2837 
Q 2550 3084 2163 3084 
Q 1697 3084 1428 2787 
Q 1159 2491 1159 1978 
L 1159 0 
L 581 0 
L 581 3500 
L 1159 3500 
L 1159 2956 
Q 1366 3272 1645 3428 
Q 1925 3584 2291 3584 
Q 2894 3584 3203 3211 
Q 3513 2838 3513 2113 
z
" transform="scale(0.015625)"/>
       <path id="DejaVuSans-73" d="M 2834 3397 
L 2834 2853 
Q 2591 2978 2328 3040 
Q 2066 3103 1784 3103 
Q 1356 3103 1142 2972 
Q 928 2841 928 2578 
Q 928 2378 1081 2264 
Q 1234 2150 1697 2047 
L 1894 2003 
Q 2506 1872 2764 1633 
Q 3022 1394 3022 966 
Q 3022 478 2636 193 
Q 2250 -91 1575 -91 
Q 1294 -91 989 -36 
Q 684 19 347 128 
L 347 722 
Q 666 556 975 473 
Q 1284 391 1588 391 
Q 1994 391 2212 530 
Q 2431 669 2431 922 
Q 2431 1156 2273 1281 
Q 2116 1406 1581 1522 
L 1381 1569 
Q 847 1681 609 1914 
Q 372 2147 372 2553 
Q 372 3047 722 3315 
Q 1072 3584 1716 3584 
Q 2034 3584 2315 3537 
Q 2597 3491 2834 3397 
z
" transform="scale(0.015625)"/>
       <path id="DejaVuSans-6f" d="M 1959 3097 
Q 1497 3097 1228 2736 
Q 959 2375 959 1747 
Q 959 1119 1226 758 
Q 1494 397 1959 397 
Q 2419 397 2687 759 
Q 2956 1122 2956 1747 
Q 2956 2369 2687 2733 
Q 2419 3097 1959 3097 
z
M 1959 3584 
Q 2709 3584 3137 3096 
Q 3566 2609 3566 1747 
Q 3566 888 3137 398 
Q 2709 -91 1959 -91 
Q 1206 -91 779 398 
Q 353 888 353 1747 
Q 353 2609 779 3096 
Q 1206 3584 1959 3584 
z
" transform="scale(0.015625)"/>
       <path id="DejaVuSans-32" d="M 1228 531 
L 3431 531 
L 3431 0 
L 469 0 
L 469 531 
Q 828 903 1448 1529 
Q 2069 2156 2228 2338 
Q 2531 2678 2651 2914 
Q 2772 3150 2772 3378 
Q 2772 3750 2511 3984 
Q 2250 4219 1831 4219 
Q 1534 4219 1204 4116 
Q 875 4013 500 3803 
L 500 4441 
Q 881 4594 1212 4672 
Q 1544 4750 1819 4750 
Q 2544 4750 2975 4387 
Q 3406 4025 3406 3419 
Q 3406 3131 3298 2873 
Q 3191 2616 2906 2266 
Q 2828 2175 2409 1742 
Q 1991 1309 1228 531 
z
" transform="scale(0.015625)"/>
      </defs>
      <use xlink:href="#DejaVuSans-74"/>
      <use xlink:href="#DejaVuSans-2d" x="39.208984"/>
      <use xlink:href="#DejaVuSans-53" x="75.292969"/>
      <use xlink:href="#DejaVuSans-4e" x="138.769531"/>
      <use xlink:href="#DejaVuSans-45" x="213.574219"/>
      <use xlink:href="#DejaVuSans-20" x="276.757812"/>
      <use xlink:href="#DejaVuSans-64" x="308.544922"/>
      <use xlink:href="#DejaVuSans-69" x="372.021484"/>
      <use xlink:href="#DejaVuSans-6d" x="399.804688"/>
      <use xlink:href="#DejaVuSans-65" x="497.216797"/>
      <use xlink:href="#DejaVuSans-6e" x="558.740234"/>
      <use xlink:href="#DejaVuSans-73" x="622.119141"/>
      <use xlink:href="#DejaVuSans-69" x="674.21875"/>
      <use xlink:href="#DejaVuSans-6f" x="702.001953"/>
      <use xlink:href="#DejaVuSans-6e" x="763.183594"/>
      <use xlink:href="#DejaVuSans-20" x="826.5625"/>
      <use xlink:href="#DejaVuSans-32" x="858.349609"/>
     </g>
    </g>
   </g>
   <g id="matplotlib.axis_2">
    <g id="ytick_1">
     <g id="line2d_8">
      <defs>
       <path id="mcadf152fab" d="M 0 0 
L -3.5 0 
" style="stroke: #000000; stroke-width: 0.8"/>
      </defs>
      <g>
       <use xlink:href="#mcadf152fab" x="57.6" y="288.383513" style="stroke: #000000; stroke-width: 0.8"/>
      </g>
     </g>
     <g id="text_9">
      <!-- −6 -->
      <g transform="translate(35.857813 292.182731) scale(0.1 -0.1)">
       <defs>
        <path id="DejaVuSans-36" d="M 2113 2584 
Q 1688 2584 1439 2293 
Q 1191 2003 1191 1497 
Q 1191 994 1439 701 
Q 1688 409 2113 409 
Q 2538 409 2786 701 
Q 3034 994 3034 1497 
Q 3034 2003 2786 2293 
Q 2538 2584 2113 2584 
z
M 3366 4563 
L 3366 3988 
Q 3128 4100 2886 4159 
Q 2644 4219 2406 4219 
Q 1781 4219 1451 3797 
Q 1122 3375 1075 2522 
Q 1259 2794 1537 2939 
Q 1816 3084 2150 3084 
Q 2853 3084 3261 2657 
Q 3669 2231 3669 1497 
Q 3669 778 3244 343 
Q 2819 -91 2113 -91 
Q 1303 -91 875 529 
Q 447 1150 447 2328 
Q 447 3434 972 4092 
Q 1497 4750 2381 4750 
Q 2619 4750 2861 4703 
Q 3103 4656 3366 4563 
z
" transform="scale(0.015625)"/>
       </defs>
       <use xlink:href="#DejaVuSans-2212"/>
       <use xlink:href="#DejaVuSans-36" x="83.789062"/>
      </g>
     </g>
    </g>
    <g id="ytick_2">
     <g id="line2d_9">
      <g>
       <use xlink:href="#mcadf152fab" x="57.6" y="255.366283" style="stroke: #000000; stroke-width: 0.8"/>
      </g>
     </g>
     <g id="text_10">
      <!-- −4 -->
      <g transform="translate(35.857813 259.165502) scale(0.1 -0.1)">
       <defs>
        <path id="DejaVuSans-34" d="M 2419 4116 
L 825 1625 
L 2419 1625 
L 2419 4116 
z
M 2253 4666 
L 3047 4666 
L 3047 1625 
L 3713 1625 
L 3713 1100 
L 3047 1100 
L 3047 0 
L 2419 0 
L 2419 1100 
L 313 1100 
L 313 1709 
L 2253 4666 
z
" transform="scale(0.015625)"/>
       </defs>
       <use xlink:href="#DejaVuSans-2212"/>
       <use xlink:href="#DejaVuSans-34" x="83.789062"/>
      </g>
     </g>
    </g>
    <g id="ytick_3">
     <g id="line2d_10">
      <g>
       <use xlink:href="#mcadf152fab" x="57.6" y="222.349054" style="stroke: #000000; stroke-width: 0.8"/>
      </g>
     </g>
     <g id="text_11">
      <!-- −2 -->
      <g transform="translate(35.857813 226.148272) scale(0.1 -0.1)">
       <use xlink:href="#DejaVuSans-2212"/>
       <use xlink:href="#DejaVuSans-32" x="83.789062"/>
      </g>
     </g>
    </g>
    <g id="ytick_4">
     <g id="line2d_11">
      <g>
       <use xlink:href="#mcadf152fab" x="57.6" y="189.331824" style="stroke: #000000; stroke-width: 0.8"/>
      </g>
     </g>
     <g id="text_12">
      <!-- 0 -->
      <g transform="translate(44.2375 193.131043) scale(0.1 -0.1)">
       <use xlink:href="#DejaVuSans-30"/>
      </g>
     </g>
    </g>
    <g id="ytick_5">
     <g id="line2d_12">
      <g>
       <use xlink:href="#mcadf152fab" x="57.6" y="156.314595" style="stroke: #000000; stroke-width: 0.8"/>
      </g>
     </g>
     <g id="text_13">
      <!-- 2 -->
      <g transform="translate(44.2375 160.113814) scale(0.1 -0.1)">
       <use xlink:href="#DejaVuSans-32"/>
      </g>
     </g>
    </g>
    <g id="ytick_6">
     <g id="line2d_13">
      <g>
       <use xlink:href="#mcadf152fab" x="57.6" y="123.297365" style="stroke: #000000; stroke-width: 0.8"/>
      </g>
     </g>
     <g id="text_14">
      <!-- 4 -->
      <g transform="translate(44.2375 127.096584) scale(0.1 -0.1)">
       <use xlink:href="#DejaVuSans-34"/>
      </g>
     </g>
    </g>
    <g id="ytick_7">
     <g id="line2d_14">
      <g>
       <use xlink:href="#mcadf152fab" x="57.6" y="90.280136" style="stroke: #000000; stroke-width: 0.8"/>
      </g>
     </g>
     <g id="text_15">
      <!-- 6 -->
      <g transform="translate(44.2375 94.079355) scale(0.1 -0.1)">
       <use xlink:href="#DejaVuSans-36"/>
      </g>
     </g>
    </g>
    <g id="ytick_8">
     <g id="line2d_15">
      <g>
       <use xlink:href="#mcadf152fab" x="57.6" y="57.262907" style="stroke: #000000; stroke-width: 0.8"/>
      </g>
     </g>
     <g id="text_16">
      <!-- 8 -->
      <g transform="translate(44.2375 61.062125) scale(0.1 -0.1)">
       <defs>
        <path id="DejaVuSans-38" d="M 2034 2216 
Q 1584 2216 1326 1975 
Q 1069 1734 1069 1313 
Q 1069 891 1326 650 
Q 1584 409 2034 409 
Q 2484 409 2743 651 
Q 3003 894 3003 1313 
Q 3003 1734 2745 1975 
Q 2488 2216 2034 2216 
z
M 1403 2484 
Q 997 2584 770 2862 
Q 544 3141 544 3541 
Q 544 4100 942 4425 
Q 1341 4750 2034 4750 
Q 2731 4750 3128 4425 
Q 3525 4100 3525 3541 
Q 3525 3141 3298 2862 
Q 3072 2584 2669 2484 
Q 3125 2378 3379 2068 
Q 3634 1759 3634 1313 
Q 3634 634 3220 271 
Q 2806 -91 2034 -91 
Q 1263 -91 848 271 
Q 434 634 434 1313 
Q 434 1759 690 2068 
Q 947 2378 1403 2484 
z
M 1172 3481 
Q 1172 3119 1398 2916 
Q 1625 2713 2034 2713 
Q 2441 2713 2670 2916 
Q 2900 3119 2900 3481 
Q 2900 3844 2670 4047 
Q 2441 4250 2034 4250 
Q 1625 4250 1398 4047 
Q 1172 3844 1172 3481 
z
" transform="scale(0.015625)"/>
       </defs>
       <use xlink:href="#DejaVuSans-38"/>
      </g>
     </g>
    </g>
    <g id="text_17">
     <!-- t-SNE dimension 1 -->
     <g transform="translate(29.778125 220.626438) rotate(-90) scale(0.1 -0.1)">
      <use xlink:href="#DejaVuSans-74"/>
      <use xlink:href="#DejaVuSans-2d" x="39.208984"/>
      <use xlink:href="#DejaVuSans-53" x="75.292969"/>
      <use xlink:href="#DejaVuSans-4e" x="138.769531"/>
      <use xlink:href="#DejaVuSans-45" x="213.574219"/>
      <use xlink:href="#DejaVuSans-20" x="276.757812"/>
      <use xlink:href="#DejaVuSans-64" x="308.544922"/>
      <use xlink:href="#DejaVuSans-69" x="372.021484"/>
      <use xlink:href="#DejaVuSans-6d" x="399.804688"/>
      <use xlink:href="#DejaVuSans-65" x="497.216797"/>
      <use xlink:href="#DejaVuSans-6e" x="558.740234"/>
      <use xlink:href="#DejaVuSans-73" x="622.119141"/>
      <use xlink:href="#DejaVuSans-69" x="674.21875"/>
      <use xlink:href="#DejaVuSans-6f" x="702.001953"/>
      <use xlink:href="#DejaVuSans-6e" x="763.183594"/>
      <use xlink:href="#DejaVuSans-20" x="826.5625"/>
      <use xlink:href="#DejaVuSans-31" x="858.349609"/>
     </g>
    </g>
   </g>
   <g id="patch_3">
    <path d="M 57.6 307.584 
L 57.6 41.472 
" style="fill: none; stroke: #000000; stroke-width: 0.8; stroke-linejoin: miter; stroke-linecap: square"/>
   </g>
   <g id="patch_4">
    <path d="M 414.72 307.584 
L 414.72 41.472 
" style="fill: none; stroke: #000000; stroke-width: 0.8; stroke-linejoin: miter; stroke-linecap: square"/>
   </g>
   <g id="patch_5">
    <path d="M 57.6 307.584 
L 414.72 307.584 
" style="fill: none; stroke: #000000; stroke-width: 0.8; stroke-linejoin: miter; stroke-linecap: square"/>
   </g>
   <g id="patch_6">
    <path d="M 57.6 41.472 
L 414.72 41.472 
" style="fill: none; stroke: #000000; stroke-width: 0.8; stroke-linejoin: miter; stroke-linecap: square"/>
   </g>
  </g>
 </g>
 <defs>
  <clipPath id="p33ce55737f">
   <rect x="57.6" y="41.472" width="357.12" height="266.112"/>
  </clipPath>
 </defs>
</svg>
